<svg xmlns="http://www.w3.org/2000/svg" viewBox="0 0 64 64" fill="none">
  <rect width="64" height="64" rx="14" fill="#0D9488"/>
  <path d="M48 32c0 0-6-10-16-10s-16 10-16 10 6 10 16 10 16-10 16-10z" fill="#fff" opacity="0.2"/>
  <path d="M44 28c-2-4-6.5-8-12-8-7 0-12 6-14 10l-2 2 2 2c2 4 7 10 14 10 5.5 0 10-4 12-8" stroke="#fff" stroke-width="2.5" stroke-linecap="round" fill="none"/>
  <circle cx="36" cy="32" r="3" fill="#fff"/>
  <path d="M44 28l6-4m-6 12l6 4" stroke="#fff" stroke-width="2.5" stroke-linecap="round"/>
</svg>
